<?xml version="1.0" encoding="UTF-8"?>
<svg version="1.1" xmlns="http://www.w3.org/2000/svg" width="128" height="128">
<path d="M0 0 C1.03858154 0.00281982 2.07716309 0.00563965 3.1472168 0.00854492 C11.81530979 0.18883697 23.33785388 0.98556343 30.0859375 7.109375 C30.49070312 7.56828125 30.89546875 8.0271875 31.3125 8.5 C32.9760479 9.17441131 34.64316942 9.8400321 36.3125 10.5 C39.625 12.5 39.625 12.5 42.3125 14.5 C42.3125 15.16 42.3125 15.82 42.3125 16.5 C43.19808594 16.88671875 43.19808594 16.88671875 44.1015625 17.28125 C53.74270195 22.59580037 59.66332039 35.59920292 62.81835938 45.63085938 C67.61280201 63.45047721 65.16963183 82.54411387 56.125 98.5 C54.64453125 100.875 54.64453125 100.875 53.3125 102.5 C52.6525 102.5 51.9925 102.5 51.3125 102.5 C50.8175 104.48 50.8175 104.48 50.3125 106.5 C49.6525 106.5 48.9925 106.5 48.3125 106.5 C47.92578125 107.38558594 47.92578125 107.38558594 47.53125 108.2890625 C42.21268163 117.93749102 29.21817125 123.83213389 19.18823242 127.00805664 C5.26909133 130.77331964 -11.45860629 130.39023735 -24.6875 124.5 C-25.56019531 124.13777344 -26.43289062 123.77554688 -27.33203125 123.40234375 C-42.63113413 116.46957055 -54.27478938 102.87553418 -60.6875 87.5 C-63.30706184 79.83993199 -64.20617814 72.69475627 -64.125 64.625 C-64.11815186 63.5736084 -64.11130371 62.5222168 -64.10424805 61.43896484 C-63.93957948 53.46209894 -62.95872293 46.84684495 -59.6875 39.5 C-59.32527344 38.62730469 -58.96304688 37.75460938 -58.58984375 36.85546875 C-52.79840775 24.07504557 -42.79027429 14.32415761 -30.6875 7.5 C-30.06230469 7.14035156 -29.43710937 6.78070312 -28.79296875 6.41015625 C-19.69961619 1.50233867 -10.24053239 -0.06256944 0 0 Z M-39.6875 20.5 C-38.6875 22.5 -38.6875 22.5 -38.6875 22.5 Z M37.3125 23.5 C38.3125 26.5 38.3125 26.5 38.3125 26.5 Z M41.3125 34.5 C40.9825 35.16 40.6525 35.82 40.3125 36.5 C40.9725 36.5 41.6325 36.5 42.3125 36.5 C41.9825 35.84 41.6525 35.18 41.3125 34.5 Z M-46.6875 76.5 C-45.6875 78.5 -45.6875 78.5 -45.6875 78.5 Z M28.3125 105.5 C28.3125 105.83 28.3125 106.16 28.3125 106.5 C31.6125 106.5 34.9125 106.5 38.3125 106.5 C38.3125 106.17 38.3125 105.84 38.3125 105.5 C35.0125 105.5 31.7125 105.5 28.3125 105.5 Z " fill="#A10A5C" transform="translate(63.6875,-0.5)"/>
<path d="M0 0 C3.9492568 0.55105909 7.34920174 1.38935371 11 3 C11 3.99 11 4.98 11 6 C11.928125 5.649375 12.85625 5.29875 13.8125 4.9375 C17 4 17 4 20 5 C19.505 3.02 19.505 3.02 19 1 C19.66 1 20.32 1 21 1 C21.5534764 3.07553648 22 4.84365964 22 7 C22.99 7 23.98 7 25 7 C25 8.32 25 9.64 25 11 C25.68026968 12.90140952 26.43980365 14.77521437 27.25 16.625 C27.70761719 17.68847656 28.16523437 18.75195312 28.63671875 19.84765625 C29.08660156 20.88792969 29.53648438 21.92820312 30 23 C32.5000537 29.05608676 34.80980499 35.15921147 36.97265625 41.34375 C37.9556629 43.88536416 39.15029733 46.16534879 40.4375 48.5625 C42.44233757 53.01593364 41.8741757 55.92389273 40.19921875 60.42578125 C38.15481741 64.81425187 35.94585742 69.14330644 33 73 C32.34 73 31.68 73 31 73 C30.505 74.98 30.505 74.98 30 77 C29.34 77 28.68 77 28 77 C27.61328125 77.88558594 27.61328125 77.88558594 27.21875 78.7890625 C21.90018163 88.43749102 8.90567125 94.33213389 -1.12426758 97.50805664 C-15.04340867 101.27331964 -31.77110629 100.89023735 -45 95 C-45.87269531 94.63777344 -46.74539062 94.27554688 -47.64453125 93.90234375 C-62.92135502 86.97966631 -74.61460404 73.37844052 -81 58 C-81.75 55 -81.75 55 -82 53 C-80.515 52.505 -80.515 52.505 -79 52 C-77.85644777 49.27702891 -77.85644777 49.27702891 -77 46.0625 C-75.32842415 40.21894944 -75.32842415 40.21894944 -72 38 C-67.40039219 44.79430185 -64.30374404 51.92781823 -61.1875 59.5 C-60.68541016 60.70398438 -60.18332031 61.90796875 -59.66601562 63.1484375 C-58.43772064 66.09634546 -57.21798812 69.04781863 -56 72 C-52.04 72.33 -48.08 72.66 -44 73 C-44.33 75.31 -44.66 77.62 -45 80 C-28.5 80 -12 80 5 80 C2.00394692 66.40053532 2.00394692 66.40053532 -1.01391602 52.8059082 C-1.38636855 51.09603759 -1.75808196 49.38600573 -2.12890625 47.67578125 C-2.32834839 46.79450562 -2.52779053 45.91322998 -2.73327637 45.00524902 C-4.46174601 36.95010068 -4.46174601 36.95010068 -3 33 C-1.33752986 30.99651034 0.32932867 28.99665598 2 27 C5.08402314 20.83195371 5.20870978 12.73648979 3.1015625 6.22265625 C2.15045625 4.08772627 1.1503099 2.03358357 0 0 Z M8 76 C8 76.33 8 76.66 8 77 C11.3 77 14.6 77 18 77 C18 76.67 18 76.34 18 76 C14.7 76 11.4 76 8 76 Z " fill="#59187B" transform="translate(84,29)"/>
<path d="M0 0 C1.95369353 0.94329096 3.6579033 1.98018672 5.421875 3.23828125 C6.30875 3.77453125 7.195625 4.31078125 8.109375 4.86328125 C13.21879713 10.11079587 15.72263454 15.98139612 15.984375 23.30078125 C15.7328311 28.88505576 14.44989362 33.51783471 11.421875 38.23828125 C10.65875 38.87765625 9.895625 39.51703125 9.109375 40.17578125 C7.2432649 42.0336364 7.2432649 42.0336364 7.35058594 44.09106445 C8.25623988 52.74296936 10.40308354 61.09232279 12.48608398 69.51757812 C12.97152993 71.49088126 13.44882866 73.4660361 13.92578125 75.44140625 C14.21267822 76.60317383 14.4995752 77.76494141 14.79516602 78.96191406 C15.421875 82.23828125 15.421875 82.23828125 15.421875 88.23828125 C-1.078125 88.23828125 -17.578125 88.23828125 -34.578125 88.23828125 C-33.95469122 82.00394341 -33.41100091 76.82924955 -31.94921875 70.91015625 C-31.79526138 70.27265442 -31.64130402 69.63515259 -31.48268127 68.97833252 C-30.83635227 66.30274997 -30.17454257 63.6310661 -29.51391602 60.95898438 C-29.02847007 58.98568124 -28.55117134 57.0105264 -28.07421875 55.03515625 C-27.78732178 53.87338867 -27.5004248 52.71162109 -27.20483398 51.51464844 C-26.5865404 48.28227603 -26.29567094 45.51648649 -26.578125 42.23828125 C-27.76638685 40.69675237 -28.96338125 39.15746394 -30.265625 37.7109375 C-34.9409058 32.46516112 -35.10608443 27.18012685 -34.921875 20.42578125 C-34.1437382 13.21033088 -30.57463143 8.78929833 -25.5546875 3.78125 C-18.23852158 -1.92998624 -8.820598 -2.60608577 0 0 Z " fill="#FBFAFB" transform="translate(73.578125,20.76171875)"/>
<path d="M0 0 C1.55787231 0.00422974 1.55787231 0.00422974 3.1472168 0.00854492 C11.81530979 0.18883697 23.33785388 0.98556343 30.0859375 7.109375 C30.49070312 7.56828125 30.89546875 8.0271875 31.3125 8.5 C32.9760479 9.17441131 34.64316942 9.8400321 36.3125 10.5 C39.625 12.5 39.625 12.5 42.3125 14.5 C42.3125 15.16 42.3125 15.82 42.3125 16.5 C43.19808594 16.88671875 43.19808594 16.88671875 44.1015625 17.28125 C53.76634344 22.60883243 59.60020043 35.58167919 62.82495117 45.60668945 C65.73432802 56.22929796 66.88812604 71.3046223 62.3125 81.5 C59.11490653 77.79581462 57.51852986 73.60138718 55.703125 69.12109375 C55.20652374 67.90837547 55.20652374 67.90837547 54.69989014 66.67115784 C54.00441157 64.96698443 53.31203063 63.261544 52.62255859 61.55493164 C51.56301398 58.93876908 50.48715815 56.32971936 49.41015625 53.72070312 C48.73597703 52.06290719 48.06276619 50.40471704 47.390625 48.74609375 C47.06676819 47.96479599 46.74291138 47.18349823 46.40924072 46.37852478 C44.19794607 40.84366178 44.19794607 40.84366178 45.3125 37.5 C43.8275 37.005 43.8275 37.005 42.3125 36.5 C41.125 33.9375 41.125 33.9375 40.3125 31.5 C40.3125 32.49 40.3125 33.48 40.3125 34.5 C37.6725 34.83 35.0325 35.16 32.3125 35.5 C31.6525 34.51 30.9925 33.52 30.3125 32.5 C28.16598503 31.70113159 28.16598503 31.70113159 25.6875 31.1875 C20.98948309 29.9130019 17.88290142 28.04266325 14.19921875 24.90234375 C7.79598199 20.14300214 -0.10526608 20.72564419 -7.6875 21.5 C-13.91662423 23.64006722 -17.71447917 28.47678577 -21.6875 33.5 C-22.3475 34.16 -23.0075 34.82 -23.6875 35.5 C-27.62889078 33.83248852 -30.4767812 31.27289351 -33.6875 28.5 C-33.3575 27.51 -33.0275 26.52 -32.6875 25.5 C-33.30625 25.2525 -33.925 25.005 -34.5625 24.75 C-37.12648664 23.24177256 -37.80007047 22.32363942 -38.6875 19.5 C-38.40807545 17.82345271 -38.07921753 16.15391846 -37.6875 14.5 C-38.0175 13.84 -38.3475 13.18 -38.6875 12.5 C-26.2975377 4.45970531 -15.01105072 -0.09171721 0 0 Z M37.3125 23.5 C38.3125 26.5 38.3125 26.5 38.3125 26.5 Z " fill="#A6101E" transform="translate(63.6875,-0.5)"/>
<path d="M0 0 C3.63411641 3.16430669 5.41987144 6.58005084 7.234375 10.953125 C7.51726379 11.61334656 7.80015259 12.27356812 8.09161377 12.95379639 C8.98683148 15.04879807 9.86855687 17.14917104 10.75 19.25 C11.35718856 20.67745983 11.96525245 22.10454766 12.57421875 23.53125 C14.05964456 27.01660953 15.53300227 30.50684636 17 34 C20.96 34.33 24.92 34.66 29 35 C28.67 37.31 28.34 39.62 28 42 C37.57 42 47.14 42 57 42 C57.61767231 46.94137848 58.12325749 51.13940081 58.0625 56 C58.05347656 56.94875 58.04445313 57.8975 58.03515625 58.875 C58.02355469 59.57625 58.01195313 60.2775 58 61 C38.52336002 61.83971142 22.7164241 57.31121 8 44 C0.56848382 36.55189562 -7.66263988 25.69888096 -9 15 C-8.01 14.67 -7.02 14.34 -6 14 C-4.81894687 11.27940236 -4.81894687 11.27940236 -3.9375 8.0625 C-2.19661017 2.19661017 -2.19661017 2.19661017 0 0 Z " fill="#4E2A06" transform="translate(11,67)"/>
<path d="M0 0 C5.46335755 3.79606587 10.12953941 8.01001802 14.7734375 12.765625 C18.63632478 16.64206628 22.76279046 20.23064797 27.0546875 23.625 C27.69664063 24.140625 28.33859375 24.65625 29 25.1875 C29.86625 25.85845703 29.86625 25.85845703 30.75 26.54296875 C32 28 32 28 32 32 C31.34 32 30.68 32 30 32 C29.7421875 32.59039062 29.484375 33.18078125 29.21875 33.7890625 C23.93684615 43.37097782 11.68069721 48.71089634 1.75 51.875 C1.07646484 52.09043457 0.40292969 52.30586914 -0.29101562 52.52783203 C-4.29689353 53.72345385 -7.82726503 54.22029967 -12 54 C-12.06058594 53.37351563 -12.12117188 52.74703125 -12.18359375 52.1015625 C-12.26738281 51.28429687 -12.35117188 50.46703125 -12.4375 49.625 C-12.51871094 48.81289062 -12.59992188 48.00078125 -12.68359375 47.1640625 C-12.89090114 44.95727195 -12.89090114 44.95727195 -14 43 C-14 40.36 -14 37.72 -14 35 C-7.07 35 -0.14 35 7 35 C6.24203125 31.46152344 6.24203125 31.46152344 5.46875 27.8515625 C4.98177091 25.57139286 4.49549011 23.29107534 4.00927734 21.01074219 C3.67049013 19.4236719 3.33097499 17.83675682 2.99072266 16.25 C2.50232427 13.97175678 2.01652987 11.69297174 1.53125 9.4140625 C1.37813354 8.70255035 1.22501709 7.99103821 1.06726074 7.25796509 C0 2.22774341 0 2.22774341 0 0 Z M10 31 C10 31.33 10 31.66 10 32 C13.3 32 16.6 32 20 32 C20 31.67 20 31.34 20 31 C16.7 31 13.4 31 10 31 Z " fill="#830775" transform="translate(82,74)"/>
<path d="M0 0 C3.13921541 1.67424822 5.25796873 3.81663707 6.81640625 6.96875 C6.46139318 14.74748093 4.54245582 22.27192878 2.81640625 29.84375 C2.543125 31.06578125 2.26984375 32.2878125 1.98828125 33.546875 C-0.02830038 42.5028699 -0.02830038 42.5028699 -1.18359375 45.96875 C-2.97517864 45.99571365 -4.76687848 46.01512917 -6.55859375 46.03125 C-7.55632813 46.04285156 -8.5540625 46.05445313 -9.58203125 46.06640625 C-12.18359375 45.96875 -12.18359375 45.96875 -14.18359375 44.96875 C-15.078125 43.10546875 -15.078125 43.10546875 -15.99609375 40.65625 C-17.52552775 36.67287338 -19.09996596 32.71807368 -20.74609375 28.78125 C-21.16375 27.78222656 -21.58140625 26.78320312 -22.01171875 25.75390625 C-23.38697647 22.48537706 -24.77780761 19.22425473 -26.18359375 15.96875 C-25.52359375 15.96875 -24.86359375 15.96875 -24.18359375 15.96875 C-23.52359375 16.62875 -22.86359375 17.28875 -22.18359375 17.96875 C-21.0983188 17.03349835 -20.01558666 16.0952967 -18.93359375 15.15625 C-18.21171875 14.53105469 -17.48984375 13.90585938 -16.74609375 13.26171875 C-14.82828739 11.54563288 -12.96769063 9.80928326 -11.12109375 8.01953125 C-10.59418945 7.51591064 -10.06728516 7.01229004 -9.52441406 6.4934082 C-8.47234432 5.48509397 -7.42977024 4.46676819 -6.39746094 3.43823242 C-2.74079129 -0.0392242 -2.74079129 -0.0392242 0 0 Z " fill="#D20212" transform="translate(41.18359375,56.03125)"/>
<path d="M0 0 C6.15037144 0.98029938 9.13315654 6.4580117 12.609375 11.19140625 C22.01449433 25.51724522 24.046886 42.18617705 22 59 C20.97680664 61.82348633 20.97680664 61.82348633 20 64 C16.80240653 60.29581462 15.20602986 56.10138718 13.390625 51.62109375 C13.0595575 50.8126149 12.72848999 50.00413605 12.38739014 49.17115784 C11.69191157 47.46698443 10.99953063 45.761544 10.31005859 44.05493164 C9.25051398 41.43876908 8.17465815 38.82971936 7.09765625 36.22070312 C6.42347703 34.56290719 5.75026619 32.90471704 5.078125 31.24609375 C4.75426819 30.46479599 4.43041138 29.68349823 4.09674072 28.87852478 C1.88544607 23.34366178 1.88544607 23.34366178 3 20 C2.01 19.67 1.02 19.34 0 19 C-2.09708794 14.82308411 -3.77751424 9.66508542 -3 5 C-1.5 2.1875 -1.5 2.1875 0 0 Z " fill="#BEB294" transform="translate(106,17)"/>
<path d="M0 0 C4.45833207 3.01259111 7.28362944 6.52038387 9.67578125 11.3046875 C11.13176484 18.87580219 11.22036262 25.79678858 7.30078125 32.5546875 C4.61328125 35.4921875 4.61328125 35.4921875 2.30078125 37.5546875 C0.91084045 34.7748059 1.11589921 32.6360549 1.30078125 29.5546875 C1.625625 28.95011719 1.95046875 28.34554687 2.28515625 27.72265625 C4.35909531 23.29559402 3.89304189 18.31147557 3.30078125 13.5546875 C1.4758518 8.77591875 -1.54538658 6.40985179 -6.01171875 4.1171875 C-7.22859375 3.6015625 -8.44546875 3.0859375 -9.69921875 2.5546875 C-9.69921875 6.5146875 -9.69921875 10.4746875 -9.69921875 14.5546875 C-11.67921875 14.5546875 -13.65921875 14.5546875 -15.69921875 14.5546875 C-15.69921875 10.5946875 -15.69921875 6.6346875 -15.69921875 2.5546875 C-23.78076375 6.40756544 -23.78076375 6.40756544 -28.69921875 13.5546875 C-29.29905516 19.35829949 -29.51872719 24.35968769 -26.69921875 29.5546875 C-26.44921875 32.6796875 -26.44921875 32.6796875 -26.69921875 35.5546875 C-27.35921875 36.2146875 -28.01921875 36.8746875 -28.69921875 37.5546875 C-29.68634753 36.31096561 -30.6636178 35.05941532 -31.63671875 33.8046875 C-32.18199219 33.10859375 -32.72726563 32.4125 -33.2890625 31.6953125 C-36.79415897 26.37455664 -36.25128281 19.69048521 -35.69921875 13.5546875 C-33.98085359 7.32302588 -30.03297324 3.04884095 -24.69921875 -0.4453125 C-16.19930533 -5.04220445 -8.3768314 -4.61181698 0 0 Z " fill="#0B0B0B" transform="translate(76.69921875,24.4453125)"/>
<path d="M0 0 C0 2.66666667 0 5.33333333 0 8 C1.62553283 9.70680947 3.29115995 11.37660195 5 13 C1.48283697 13 0.62878252 12.17554415 -2 10 C-3.5805237 15.16752784 -5.10617816 20.34119915 -6.5 25.5625 C-8.77379451 33.95079892 -11.69531527 41.96475133 -15 50 C-17.11822497 45.87142263 -18.93292644 41.61780652 -20.78125 37.36328125 C-21.7744295 34.8669656 -21.7744295 34.8669656 -24 34 C-22.39182575 21.50430122 -14.36254975 10.59469084 -5.125 2.375 C-2 0 -2 0 0 0 Z " fill="#11226D" transform="translate(26,13)"/>
<path d="M0 0 C3.62125301 3.15753199 5.41700069 6.5595948 7.234375 10.91796875 C7.51726379 11.57581863 7.80015259 12.23366852 8.09161377 12.91145325 C8.98677894 14.99974304 9.86829011 17.0934992 10.75 19.1875 C11.35723207 20.60647991 11.96529652 22.02510393 12.57421875 23.44335938 C17 33.80023884 17 33.80023884 17 35 C1.90383189 36.51297899 1.90383189 36.51297899 -2.359375 33.125 C-3.97782249 30.45539589 -5.03714918 27.96879004 -6 25 C-6.33 24.04609375 -6.66 23.0921875 -7 22.109375 C-7.75437824 19.75194301 -8.4167629 17.40457399 -9 15 C-8.01 14.67 -7.02 14.34 -6 14 C-4.81894687 11.27940236 -4.81894687 11.27940236 -3.9375 8.0625 C-2.19661017 2.19661017 -2.19661017 2.19661017 0 0 Z " fill="#0A9A93" transform="translate(11,67)"/>
<path d="M0 0 C2.62936801 0.89563972 4.52021815 1.75492414 6.73046875 3.41015625 C7.32601562 3.84199219 7.9215625 4.27382812 8.53515625 4.71875 C9.18871094 5.33943359 9.18871094 5.33943359 9.85546875 5.97265625 C9.85546875 6.63265625 9.85546875 7.29265625 9.85546875 7.97265625 C10.51546875 8.30265625 11.17546875 8.63265625 11.85546875 8.97265625 C11.19546875 9.63265625 10.53546875 10.29265625 9.85546875 10.97265625 C7.50427476 14.49944724 7.64103423 16.0014511 7.73046875 20.16015625 C7.75753906 21.79017578 7.75753906 21.79017578 7.78515625 23.453125 C7.80835937 24.28457031 7.8315625 25.11601563 7.85546875 25.97265625 C3.89546875 26.46765625 3.89546875 26.46765625 -0.14453125 26.97265625 C-0.80453125 25.98265625 -1.46453125 24.99265625 -2.14453125 23.97265625 C-4.35787019 23.13850842 -4.35787019 23.13850842 -6.89453125 22.59765625 C-11.79723328 21.26895295 -14.52768309 19.4943242 -18.14453125 15.97265625 C-15.84284235 11.65402346 -12.8734296 8.41524876 -9.33203125 5.09765625 C-8.82349609 4.5871875 -8.31496094 4.07671875 -7.79101562 3.55078125 C-5.11699717 1.04282985 -3.72460111 -0.03238784 0 0 Z M4.85546875 14.97265625 C5.85546875 17.97265625 5.85546875 17.97265625 5.85546875 17.97265625 Z " fill="#218D30" transform="translate(96.14453125,8.02734375)"/>
<path d="M0 0 C10.10057638 -0.70142892 19.89820481 1.44910241 29 6 C27.36048096 10.42562981 23.9695684 13.1006588 20.5625 16.1875 C19.97662109 16.73341797 19.39074219 17.27933594 18.78710938 17.84179688 C14.38926035 21.87024655 14.38926035 21.87024655 11 23 C9.32866228 22.34513173 7.66266596 21.67658268 6 21 C3.9040014 20.72123482 1.79737389 20.51411256 -0.3125 20.375 C-1.38113281 20.30023437 -2.44976562 20.22546875 -3.55078125 20.1484375 C-4.35902344 20.09945313 -5.16726562 20.05046875 -6 20 C-6 19.67 -6 19.34 -6 19 C-3.69 19 -1.38 19 1 19 C0.67 12.73 0.34 6.46 0 0 Z " fill="#EAAC2B" transform="translate(65,0)"/>
<path d="M0 0 C5.46335755 3.79606587 10.12953941 8.01001802 14.7734375 12.765625 C18.64346214 16.64922867 22.79142638 20.21550611 27.0546875 23.66015625 C27.69664063 24.18480469 28.33859375 24.70945312 29 25.25 C29.5775 25.70890625 30.155 26.1678125 30.75 26.640625 C32 28 32 28 32 31 C19.625 31.495 19.625 31.495 7 32 C4.01176969 21.38663029 1.75803712 10.88118428 0 0 Z " fill="#AD7E46" transform="translate(82,74)"/>
<path d="M0 0 C3.3 0 6.6 0 10 0 C11.35017232 5.32920956 12.6783908 10.66365495 14 16 C14.25152832 17.01191406 14.50305664 18.02382812 14.76220703 19.06640625 C15.57699508 22.35524109 16.38304392 25.64612404 17.1875 28.9375 C17.44934082 29.9905835 17.71118164 31.04366699 17.98095703 32.12866211 C18.2282959 33.14710205 18.47563477 34.16554199 18.73046875 35.21484375 C18.95114014 36.11323975 19.17181152 37.01163574 19.39916992 37.93725586 C20.18000064 41.91755713 20.55207123 45.9686411 21 50 C14.4 50 7.8 50 1 50 C0.67 48.02 0.34 46.04 0 44 C4.62 44 9.24 44 14 44 C13.2575 41.4321875 13.2575 41.4321875 12.5 38.8125 C11.41943621 35.07555022 10.82914227 31.89413249 11 28 C10.195625 28.020625 9.39125 28.04125 8.5625 28.0625 C6 28 6 28 5 27 C4.95936168 25.33382885 4.957279 23.66611905 5 22 C6.32 22 7.64 22 9 22 C8.7834375 21.26394531 8.566875 20.52789062 8.34375 19.76953125 C8.0653125 18.79371094 7.786875 17.81789063 7.5 16.8125 C7.08234375 15.36810547 7.08234375 15.36810547 6.65625 13.89453125 C6.03322392 11.14654124 5.87697188 8.80401584 6 6 C4.35 6 2.7 6 1 6 C0.67 4.02 0.34 2.04 0 0 Z " fill="#111C6E" transform="translate(66,57)"/>
<path d="M0 0 C3.3 0 6.6 0 10 0 C9.67 1.98 9.34 3.96 9 6 C7.35 6 5.7 6 4 6 C3.87625 7.155 3.7525 8.31 3.625 9.5 C3.09721115 13.78350375 2.11601963 17.83352672 1 22 C2.32 22 3.64 22 5 22 C5.042721 23.66611905 5.04063832 25.33382885 5 27 C4 28 4 28 1.4375 28.0625 C0.633125 28.041875 -0.17125 28.02125 -1 28 C-1.04898438 28.65226562 -1.09796875 29.30453125 -1.1484375 29.9765625 C-1.22320312 30.85054687 -1.29796875 31.72453125 -1.375 32.625 C-1.44460937 33.48351562 -1.51421875 34.34203125 -1.5859375 35.2265625 C-2 38 -2 38 -4 44 C0.62 44 5.24 44 10 44 C9.67 45.98 9.34 47.96 9 50 C2.4 50 -4.2 50 -11 50 C-9.63767782 41.40237823 -7.97251136 32.9291122 -6.0625 24.4375 C-5.68448242 22.72530273 -5.68448242 22.72530273 -5.29882812 20.97851562 C-3.72367689 13.92457748 -1.95400067 6.95857554 0 0 Z " fill="#642089" transform="translate(52,57)"/>
<path d="M0 0 C1.95369353 0.94329096 3.6579033 1.98018672 5.421875 3.23828125 C6.30875 3.77453125 7.195625 4.31078125 8.109375 4.86328125 C13.21879713 10.11079587 15.72263454 15.98139612 15.984375 23.30078125 C15.7328311 28.88505576 14.44989362 33.51783471 11.421875 38.23828125 C10.65875 38.87765625 9.895625 39.51703125 9.109375 40.17578125 C7.24428659 42.03310324 7.24428659 42.03310324 7.34838867 44.08666992 C8.25471926 52.79349186 10.44001364 61.19650755 12.56152344 69.66845703 C13.05663973 71.65604958 13.54052277 73.64613247 14.0234375 75.63671875 C14.31557129 76.80895996 14.60770508 77.98120117 14.90869141 79.18896484 C15.38794623 82.03667786 15.40891294 83.57089943 14.421875 86.23828125 C12.32383071 83.09121482 11.80757561 81.08442685 11.0546875 77.41796875 C10.81041016 76.25007813 10.56613281 75.0821875 10.31445312 73.87890625 C10.06115234 72.63625 9.80785156 71.39359375 9.546875 70.11328125 C7.45638392 59.8963597 7.45638392 59.8963597 5.0703125 49.74609375 C4.87421387 48.9689502 4.67811523 48.19180664 4.47607422 47.39111328 C4.11688863 45.99582761 3.74677414 44.6032917 3.36376953 43.21435547 C2.62693537 40.33165341 2.27506003 38.63316289 3.328125 35.80078125 C3.6890625 35.28515625 4.05 34.76953125 4.421875 34.23828125 C5.081875 36.21828125 5.741875 38.19828125 6.421875 40.23828125 C7.24210249 39.16078683 8.05273669 38.07598617 8.859375 36.98828125 C9.31183594 36.385 9.76429687 35.78171875 10.23046875 35.16015625 C13.35593398 30.11842217 12.86919744 23.96400855 12.421875 18.23828125 C10.57988675 12.32452951 7.71693346 7.30891137 2.4140625 3.9765625 C-3.88910696 0.84694003 -9.34016709 0.15310718 -16.15625 1.8984375 C-22.15638443 3.97333429 -26.22746642 6.79346105 -29.578125 12.23828125 C-32.43920795 18.16691705 -32.66072559 25.07101048 -31.0078125 31.43359375 C-29.66500174 34.69874412 -27.84331807 37.54162283 -25.578125 40.23828125 C-24.918125 38.25828125 -24.258125 36.27828125 -23.578125 34.23828125 C-21.55216105 37.04297367 -21.58700703 38.30722429 -22.0378418 41.80664062 C-22.35345514 43.2349875 -22.68430303 44.66002224 -23.02734375 46.08203125 C-23.20062698 46.84696899 -23.37391022 47.61190674 -23.55244446 48.40002441 C-24.11065986 50.84926669 -24.68794513 53.2935651 -25.265625 55.73828125 C-25.63600072 57.35258171 -26.00515401 58.96716315 -26.37304688 60.58203125 C-28.33776405 69.15988327 -30.39915 77.71213234 -32.578125 86.23828125 C-33.238125 85.90828125 -33.898125 85.57828125 -34.578125 85.23828125 C-32.83041156 75.19248123 -30.72511815 65.30441607 -28.2043457 55.4230957 C-26.57934636 48.91469164 -26.57934636 48.91469164 -26.578125 42.23828125 C-27.76638685 40.69675237 -28.96338125 39.15746394 -30.265625 37.7109375 C-34.9409058 32.46516112 -35.10608443 27.18012685 -34.921875 20.42578125 C-34.1437382 13.21033088 -30.57463143 8.78929833 -25.5546875 3.78125 C-18.23852158 -1.92998624 -8.820598 -2.60608577 0 0 Z " fill="#EBD9E3" transform="translate(73.578125,20.76171875)"/>
<path d="M0 0 C3.29627005 0.12261994 6.5150886 0.40850844 9.78735352 0.83276367 C10.7494044 7.20635078 10.89390929 13.39205897 10.78735352 19.83276367 C8.12040403 19.88731491 5.45459854 19.92669759 2.78735352 19.95776367 C1.67166992 19.98290039 1.67166992 19.98290039 0.53344727 20.00854492 C-4.71813091 20.05421082 -9.16434108 19.28988819 -14.21264648 17.83276367 C-12.80450631 9.10876881 -9.84559309 0.24924162 0 0 Z " fill="#EFAF29" transform="translate(58.212646484375,108.167236328125)"/>
<path d="M0 0 C0 5.94 0 11.88 0 18 C-3.85698502 17.228603 -6.73969556 16.41217319 -10.30078125 14.93359375 C-11.76547852 14.3293457 -11.76547852 14.3293457 -13.25976562 13.71289062 C-14.26716797 13.29201172 -15.27457031 12.87113281 -16.3125 12.4375 C-17.85260742 11.80038086 -17.85260742 11.80038086 -19.42382812 11.15039062 C-21.95092341 10.10429072 -24.47620894 9.05404084 -27 8 C-25.32714844 4.15820312 -25.32714844 4.15820312 -22.3828125 2.734375 C-14.63080207 0.39204091 -8.0953407 -0.3901369 0 0 Z " fill="#E69000" transform="translate(64,0)"/>
<path d="M0 0 C5.42726485 0.8650444 7.82943588 4.8227989 11 9 C14.71853948 14.43804635 17.59595636 19.54139927 19 26 C14.33172046 26 11.53268239 24.64993484 7.33984375 22.77734375 C4.8896772 21.70388644 4.8896772 21.70388644 2 23 C2.33 22.01 2.66 21.02 3 20 C2.01 19.67 1.02 19.34 0 19 C-2.09708794 14.82308411 -3.77751424 9.66508542 -3 5 C-1.5 2.1875 -1.5 2.1875 0 0 Z " fill="#AD8A56" transform="translate(106,17)"/>
<path d="M0 0 C5.08157347 5.84380949 7.39885666 11.76549133 6.9375 19.5 C5.60453256 30.85688256 5.60453256 30.85688256 3 35 C0.89453125 35.734375 0.89453125 35.734375 -1 36 C-3.58969576 30.09097198 -3.29563679 24.26199842 -3.25 17.9375 C-3.25773438 16.86177734 -3.26546875 15.78605469 -3.2734375 14.67773438 C-3.27085938 13.63810547 -3.26828125 12.59847656 -3.265625 11.52734375 C-3.26336914 10.58624756 -3.26111328 9.64515137 -3.25878906 8.67553711 C-2.95334712 5.51767081 -2.31679422 2.31679422 0 0 Z " fill="#7CAB1C" transform="translate(3,46)"/>
<path d="M0 0 C2.64 0 5.28 0 8 0 C8 1.65 8 3.3 8 5 C11.96 5 15.92 5 20 5 C20.33 5.66 20.66 6.32 21 7 C19.6015625 9.49609375 19.6015625 9.49609375 17.625 12.4375 C14.89488715 16.51185878 14.89488715 16.51185878 13 21 C10.734375 20.953125 10.734375 20.953125 8 20 C6.47772934 17.54279145 5.35583035 15.38316555 4.25 12.75 C3.79560547 11.74646484 3.79560547 11.74646484 3.33203125 10.72265625 C1.76609516 7.18016083 0.56835072 3.85880225 0 0 Z " fill="#149A5A" transform="translate(31,104)"/>
<path d="M0 0 C0.33 0 0.66 0 1 0 C2.51935086 6.98571102 1.81504725 11.89093742 -2 18 C-2.763125 18.639375 -3.52625 19.27875 -4.3125 19.9375 C-6.17758841 21.79482199 -6.17758841 21.79482199 -6.07348633 23.84838867 C-5.16715574 32.55521061 -2.98186136 40.9582263 -0.86035156 49.43017578 C-0.36523527 51.41776833 0.11864777 53.40785122 0.6015625 55.3984375 C0.89369629 56.57067871 1.18583008 57.74291992 1.48681641 58.95068359 C1.96607123 61.79839661 1.98703794 63.33261818 1 66 C-1.09804429 62.85293357 -1.61429939 60.8461456 -2.3671875 57.1796875 C-2.73360352 55.42785156 -2.73360352 55.42785156 -3.10742188 53.640625 C-3.48737305 51.77664062 -3.48737305 51.77664062 -3.875 49.875 C-5.96549108 39.65807845 -5.96549108 39.65807845 -8.3515625 29.5078125 C-8.54766113 28.73066895 -8.74375977 27.95352539 -8.94580078 27.15283203 C-9.30498637 25.75754636 -9.67510086 24.36501045 -10.05810547 22.97607422 C-10.79493963 20.09337216 -11.14681497 18.39488164 -10.09375 15.5625 C-9.55234375 14.7890625 -9.55234375 14.7890625 -9 14 C-8.34 15.98 -7.68 17.96 -7 20 C-1.57925484 13.86599889 -0.8077693 8.01741171 0 0 Z " fill="#D8D4DA" transform="translate(87,41)"/>
<path d="M0 0 C3.51788291 3.04883185 4.65928347 5.59133752 6 10 C4.38050958 11.50594681 2.75424026 13.00460668 1.125 14.5 C0.22007813 15.3353125 -0.68484375 16.170625 -1.6171875 17.03125 C-4 19 -4 19 -6 19 C-5.55230183 12.95607475 -4.49961114 4.49961114 0 0 Z " fill="#26A0D8" transform="translate(11,67)"/>
<path d="M0 0 C1.94701841 0.94739976 3.65335856 1.98642359 5.4140625 3.2421875 C6.3009375 3.7784375 7.1878125 4.3146875 8.1015625 4.8671875 C12.83721851 9.73083421 15.7265625 15.52176225 15.7265625 22.3671875 C15.6234375 23.6459375 15.5203125 24.9246875 15.4140625 26.2421875 C15.0840625 26.2421875 14.7540625 26.2421875 14.4140625 26.2421875 C14.26710937 25.46875 14.12015625 24.6953125 13.96875 23.8984375 C12.21356475 15.74792209 10.15073641 9.53691476 3.1171875 4.64453125 C-3.47700859 0.96857411 -8.86576855 0.02454149 -16.16015625 1.90625 C-23.03701038 4.27048984 -27.29589344 7.76658807 -30.61328125 14.25 C-31.33288811 15.88818336 -31.96896677 17.56265606 -32.5859375 19.2421875 C-33.3359375 17.6796875 -33.3359375 17.6796875 -33.5859375 15.2421875 C-30.67835427 8.5421044 -25.86000762 4.03891599 -19.7890625 0.06640625 C-14.06932577 -2.07342434 -5.83995242 -1.711406 0 0 Z " fill="#E6DEDF" transform="translate(73.5859375,20.7578125)"/>
<path d="M0 0 C4.10839064 1.45002023 7.50344613 3.3979134 11 6 C11 6.66 11 7.32 11 8 C11.66 8.33 12.32 8.66 13 9 C12.34 9.66 11.68 10.32 11 11 C8.5705484 14.6441774 8.83820425 16.71241272 9 21 C5 21 5 21 3 20 C3.309375 18.7315625 3.309375 18.7315625 3.625 17.4375 C4.16352294 12.50103975 2.69346462 8.73366155 0.875 4.1875 C0 2 0 2 0 0 Z M6 15 C7 18 7 18 7 18 Z " fill="#014924" transform="translate(95,8)"/>
<path d="M0 0 C3.9492568 0.55105909 7.34920174 1.38935371 11 3 C10.46939601 7.51013391 8.69113883 10.38378219 6 14 C5.67 14 5.34 14 5 14 C4.80664062 13.32453125 4.61328125 12.6490625 4.4140625 11.953125 C4.15367188 11.06109375 3.89328125 10.1690625 3.625 9.25 C3.36976562 8.36828125 3.11453125 7.4865625 2.8515625 6.578125 C2.0790066 4.23919428 1.16374324 2.16557438 0 0 Z " fill="#DD1870" transform="translate(84,29)"/>
<path d="M0 0 C0.33 0.66 0.66 1.32 1 2 C-2.86364295 6.48717034 -6.74790208 10.87675353 -11 15 C-11.99 11.7 -12.98 8.4 -14 5 C-13.01 5 -12.02 5 -11 5 C-11 6.32 -11 7.64 -11 9 C-9.35357683 7.68823998 -7.70787757 6.3755713 -6.0625 5.0625 C-5.14597656 4.33160156 -4.22945312 3.60070312 -3.28515625 2.84765625 C-1.59148731 1.48061289 -1.59148731 1.48061289 0 0 Z " fill="#0D3338" transform="translate(16,77)"/>
<path d="M0 0 C2.78027733 2.78027733 2.54950749 5.00559116 3 8.875 C3.65886064 14.7054796 3.65886064 14.7054796 6 20 C5.34 20.33 4.68 20.66 4 21 C-0.40744316 13.97563746 -0.4485551 8.17367067 0 0 Z " fill="#DCCDD4" transform="translate(39,38)"/>
<path d="M0 0 C0.66 0.66 1.32 1.32 2 2 C1.828125 4.71484375 1.828125 4.71484375 1.25 7.9375 C1.06953125 8.99839844 0.8890625 10.05929688 0.703125 11.15234375 C0 14 0 14 -2 17 C-3.30211046 13.09366863 -2.47812346 10.80461827 -1.5625 6.8125 C-1.27503906 5.54019531 -0.98757812 4.26789063 -0.69140625 2.95703125 C-0.46324219 1.98121094 -0.23507813 1.00539063 0 0 Z " fill="#E2C4D2" transform="translate(42,90)"/>
<path d="M0 0 C0 1.98 0 3.96 0 6 C-2.3125 6.625 -2.3125 6.625 -5 7 C-5.99 6.34 -6.98 5.68 -8 5 C-2.25 0 -2.25 0 0 0 Z " fill="#034970" transform="translate(26,13)"/>
<path d="M0 0 C0.66 0.33 1.32 0.66 2 1 C1.01 2.485 1.01 2.485 0 4 C-0.07905064 6.33199388 -0.08798769 8.66832622 0 11 C-4 11 -4 11 -6 10 C-5.835 9.05125 -5.67 8.1025 -5.5 7.125 C-4.9473365 4.19831099 -4.9473365 4.19831099 -5 2 C-3.68 2 -2.36 2 -1 2 C-0.67 1.34 -0.34 0.68 0 0 Z M-3 5 C-2 8 -2 8 -2 8 Z " fill="#132619" transform="translate(104,18)"/>
<path d="M0 0 C0.33 0.66 0.66 1.32 1 2 C-0.32 3.32 -1.64 4.64 -3 6 C-2.42655063 3.13275314 -2.1385485 2.1385485 0 0 Z M-6 7 C-5.34 7.33 -4.68 7.66 -4 8 C-5.98 10.31 -7.96 12.62 -10 15 C-10.33 14.01 -10.66 13.02 -11 12 C-9.35 10.35 -7.7 8.7 -6 7 Z " fill="#076763" transform="translate(16,77)"/>
<path d="M0 0 C1.65 0.33 3.3 0.66 5 1 C5.66 2.98 6.32 4.96 7 7 C5 7 5 7 3.375 5.5 C2.92125 5.005 2.4675 4.51 2 4 C1.01 4.33 0.02 4.66 -1 5 C-0.67 3.35 -0.34 1.7 0 0 Z " fill="#1B3D4F" transform="translate(9,64)"/>
<path d="M0 0 C3 3.625 3 3.625 3 7 C0.5625 6.625 0.5625 6.625 -2 6 C-2.33 5.34 -2.66 4.68 -3 4 C-2.01 2.68 -1.02 1.36 0 0 Z " fill="#0094D8" transform="translate(101,27)"/>
<path d="M0 0 C2.2477975 2.05233685 3.0022242 3.00667261 4 6 C4.06740865 7.56118428 4.08514456 9.1250252 4.0625 10.6875 C4.05347656 11.49574219 4.04445313 12.30398437 4.03515625 13.13671875 C4.02355469 13.75160156 4.01195313 14.36648437 4 15 C3.67 15 3.34 15 3 15 C2.49564306 13.0636296 1.99666126 11.12585854 1.5 9.1875 C1.2215625 8.10855469 0.943125 7.02960937 0.65625 5.91796875 C0 3 0 3 0 0 Z " fill="#ECD6E0" transform="translate(85,32)"/>
<path d="M0 0 C0.66 0 1.32 0 2 0 C1.55149342 1.81495662 1.09090429 3.62693134 0.625 5.4375 C0.36976562 6.44683594 0.11453125 7.45617188 -0.1484375 8.49609375 C-1 11 -1 11 -3 12 C-3.33 10.35 -3.66 8.7 -4 7 C-3.34 6.67 -2.68 6.34 -2 6 C-1.27306096 4.02111039 -0.60183749 2.02045442 0 0 Z " fill="#0C0916" transform="translate(13,51)"/>
<path d="M0 0 C1.1055189 0.93590504 2.20935453 1.87379858 3.3125 2.8125 C3.92738281 3.33457031 4.54226562 3.85664062 5.17578125 4.39453125 C6.85424679 5.87172469 8.43882034 7.40039131 10 9 C6.22089522 9 5.53893899 8.00296038 2.8125 5.5 C2.09707031 4.8503125 1.38164063 4.200625 0.64453125 3.53125 C0.10183594 3.0259375 -0.44085938 2.520625 -1 2 C-0.67 1.34 -0.34 0.68 0 0 Z " fill="#211318" transform="translate(99,87)"/>
</svg>
