<?xml version="1.0" encoding="UTF-8"?>
<!DOCTYPE svg PUBLIC "-//W3C//DTD SVG 1.1//EN" "http://www.w3.org/Graphics/SVG/1.1/DTD/svg11.dtd">
<svg xmlns="http://www.w3.org/2000/svg" version="1.1" width="48px" height="48px" style="shape-rendering:geometricPrecision; text-rendering:geometricPrecision; image-rendering:optimizeQuality; fill-rule:evenodd; clip-rule:evenodd" xmlns:xlink="http://www.w3.org/1999/xlink">
<g><path style="opacity:0.946" fill="#303b40" d="M 36.5,30.5 C 35.2436,30.9038 34.0769,31.5705 33,32.5C 31.9701,32.1639 31.4701,31.4972 31.5,30.5C 33.4411,28.9894 33.9411,26.9894 33,24.5C 32.6667,25.8333 32.3333,27.1667 32,28.5C 30.768,24.3748 29.268,20.3748 27.5,16.5C 27.1898,14.8564 26.1898,13.8564 24.5,13.5C 25.5281,12.9264 26.5281,12.593 27.5,12.5C 25.5365,9.8061 24.2032,10.1394 23.5,13.5C 20.3657,13.7066 19.3657,15.0399 20.5,17.5C 19.3534,21.1266 17.6867,24.4599 15.5,27.5C 16.389,29.8983 17.889,31.8983 20,33.5C 20.6917,34.4368 20.525,35.1034 19.5,35.5C 17.7865,32.7872 15.4532,30.7872 12.5,29.5C 13.2679,25.2976 15.1012,21.631 18,18.5C 18.3333,14.8333 18.6667,11.1667 19,7.5C 23.1247,3.4087 26.7914,3.74204 30,8.5C 30.3333,10.8333 30.6667,13.1667 31,15.5C 33.6939,19.5545 35.8606,23.8878 37.5,28.5C 37.1373,29.1835 36.8039,29.8501 36.5,30.5 Z"/></g>
<g><path style="opacity:1" fill="#a7abae" d="M 24.5,13.5 C 24.1667,13.5 23.8333,13.5 23.5,13.5C 24.2032,10.1394 25.5365,9.8061 27.5,12.5C 26.5281,12.593 25.5281,12.9264 24.5,13.5 Z"/></g>
<g><path style="opacity:1" fill="#dba816" d="M 23.5,13.5 C 23.8333,13.5 24.1667,13.5 24.5,13.5C 26.1898,13.8564 27.1898,14.8564 27.5,16.5C 25.3086,18.3535 22.9752,18.6868 20.5,17.5C 19.3657,15.0399 20.3657,13.7066 23.5,13.5 Z"/></g>
<g><path style="opacity:1" fill="#e4e7e8" d="M 27.5,16.5 C 29.268,20.3748 30.768,24.3748 32,28.5C 32.3333,27.1667 32.6667,25.8333 33,24.5C 33.9411,26.9894 33.4411,28.9894 31.5,30.5C 30.5041,30.4142 29.6708,30.7476 29,31.5C 28.5065,33.1341 28.3398,34.8008 28.5,36.5C 25.5,37.8333 22.5,37.8333 19.5,36.5C 19.5,36.1667 19.5,35.8333 19.5,35.5C 20.525,35.1034 20.6917,34.4368 20,33.5C 17.889,31.8983 16.389,29.8983 15.5,27.5C 17.6867,24.4599 19.3534,21.1266 20.5,17.5C 22.9752,18.6868 25.3086,18.3535 27.5,16.5 Z"/></g>
<g><path style="opacity:0.958" fill="#fcbf07" d="M 12.5,29.5 C 15.4532,30.7872 17.7865,32.7872 19.5,35.5C 19.5,35.8333 19.5,36.1667 19.5,36.5C 20.1098,37.391 20.4431,38.391 20.5,39.5C 20.5824,41.2517 19.7491,42.2517 18,42.5C 14.3071,41.5408 10.8071,40.2075 7.5,38.5C 8.1892,36.556 8.6892,34.556 9,32.5C 10.5185,31.8366 11.6851,30.8366 12.5,29.5 Z"/></g>
<g><path style="opacity:0.957" fill="#fabf19" d="M 31.5,30.5 C 31.4701,31.4972 31.9701,32.1639 33,32.5C 34.0769,31.5705 35.2436,30.9038 36.5,30.5C 38.1739,32.6245 39.0072,34.9578 39,37.5C 35.9348,40.8217 32.4348,41.8217 28.5,40.5C 28.5,39.1667 28.5,37.8333 28.5,36.5C 28.3398,34.8008 28.5065,33.1341 29,31.5C 29.6708,30.7476 30.5041,30.4142 31.5,30.5 Z"/></g>
<g><path style="opacity:0.969" fill="#2d373c" d="M 19.5,36.5 C 22.5,37.8333 25.5,37.8333 28.5,36.5C 28.5,37.8333 28.5,39.1667 28.5,40.5C 25.9455,39.612 23.2788,39.2786 20.5,39.5C 20.4431,38.391 20.1098,37.391 19.5,36.5 Z"/></g>
</svg>
